HIERARCHY
ROOT hips
{
	OFFSET 0.000000 104.274902 0.000000
	CHANNELS 6 Xposition Yposition Zposition Xrotation Yrotation Zrotation
	JOINT spine
	{
		OFFSET 0.000000 10.181549 0.131524
		CHANNELS 6 Xposition Yposition Zposition Xrotation Yrotation Zrotation
		JOINT chest
		{
			OFFSET 0.000000 9.893990 -1.470706
			CHANNELS 3 Xrotation Yrotation Zrotation
			JOINT upperChest
			{
				OFFSET 0.000000 9.220787 -1.370637
				CHANNELS 3 Xrotation Yrotation Zrotation
				JOINT neck
				{
					OFFSET 0.000000 16.740372 -2.049022
					CHANNELS 6 Xposition Yposition Zposition Xrotation Yrotation Zrotation
					JOINT head
					{
						OFFSET 0.000000 9.617859 1.684976
						CHANNELS 6 Xposition Yposition Zposition Xrotation Yrotation Zrotation
						JOINT headEnd
						{
							OFFSET 0.000000 22.037384 7.501072
							CHANNELS 6 Xposition Yposition Zposition Xrotation Yrotation Zrotation
							End Site
							{
								OFFSET 0.000000 23.106567 -2.828246
							}
						}
					}
				}
				JOINT rightShoulder
				{
					OFFSET -4.570000 11.014877 -2.160840
					CHANNELS 6 Xposition Yposition Zposition Xrotation Yrotation Zrotation
					JOINT rightUpperArm
					{
						OFFSET -10.592867 -0.524796 -2.232105
						CHANNELS 3 Xrotation Yrotation Zrotation
						JOINT rightLowerArm
						{
							OFFSET -27.841497 0.000000 -0.000002
							CHANNELS 3 Xrotation Yrotation Zrotation
							JOINT rightHand
							{
								OFFSET -28.328812 0.000000 -0.000001
								CHANNELS 3 Xrotation Yrotation Zrotation
								JOINT rightThumbProximal
								{
									OFFSET -2.464798 -1.573990 2.681911
									CHANNELS 6 Xposition Yposition Zposition Xrotation Yrotation Zrotation
									JOINT rightThumbIntermediate
									{
										OFFSET -3.244781 -1.873383 1.873376
										CHANNELS 3 Xrotation Yrotation Zrotation
										JOINT rightThumbDistal
										{
											OFFSET -2.646263 -1.527817 1.527818
											CHANNELS 6 Xposition Yposition Zposition Xrotation Yrotation Zrotation
											JOINT rightHandThumb4
											{
												OFFSET -1.994591 -1.151581 1.151575
												CHANNELS 6 Xposition Yposition Zposition Xrotation Yrotation Zrotation
												End Site
												{
													OFFSET -1.860176 -1.142715 1.365483
												}
											}
										}
									}
								}
								JOINT rightIndexProximal
								{
									OFFSET -9.108299 -0.517883 2.259803
									CHANNELS 6 Xposition Yposition Zposition Xrotation Yrotation Zrotation
									JOINT rightIndexIntermediate
									{
										OFFSET -3.699997 0.000000 0.000000
										CHANNELS 3 Xrotation Yrotation Zrotation
										JOINT rightIndexDistal
										{
											OFFSET -2.850006 0.000000 0.000000
											CHANNELS 3 Xrotation Yrotation Zrotation
											JOINT rightHandIndex4
											{
												OFFSET -2.772194 0.000000 0.000000
												CHANNELS 3 Xrotation Yrotation Zrotation
												End Site
												{
													OFFSET -2.772202 0.000000 -0.000484
												}
											}
										}
									}
								}
								JOINT rightMiddleProximal
								{
									OFFSET -9.532501 0.000000 -0.000000
									CHANNELS 6 Xposition Yposition Zposition Xrotation Yrotation Zrotation
									JOINT rightMiddleIntermediate
									{
										OFFSET -3.699997 0.000000 0.000000
										CHANNELS 3 Xrotation Yrotation Zrotation
										JOINT rightMiddleDistal
										{
											OFFSET -2.949997 0.000000 0.000000
											CHANNELS 3 Xrotation Yrotation Zrotation
											JOINT rightHandMiddle4
											{
												OFFSET -2.946594 0.000000 0.000000
												CHANNELS 3 Xrotation Yrotation Zrotation
												End Site
												{
													OFFSET -2.946602 0.000000 -0.000982
												}
											}
										}
									}
								}
								JOINT rightRingProximal
								{
									OFFSET -9.103600 -0.043106 -1.865100
									CHANNELS 6 Xposition Yposition Zposition Xrotation Yrotation Zrotation
									JOINT rightRingIntermediate
									{
										OFFSET -3.379303 0.000000 0.000000
										CHANNELS 3 Xrotation Yrotation Zrotation
										JOINT rightRingDistal
										{
											OFFSET -2.889694 0.000000 0.000000
											CHANNELS 3 Xrotation Yrotation Zrotation
											JOINT rightHandRing4
											{
												OFFSET -2.638802 0.000000 0.000000
												CHANNELS 3 Xrotation Yrotation Zrotation
												End Site
												{
													OFFSET -2.638802 0.000000 0.004218
												}
											}
										}
									}
								}
								JOINT rightLittleProximal
								{
									OFFSET -8.076698 -0.486725 -3.806299
									CHANNELS 6 Xposition Yposition Zposition Xrotation Yrotation Zrotation
									JOINT rightLittleIntermediate
									{
										OFFSET -3.600006 0.000000 0.000000
										CHANNELS 3 Xrotation Yrotation Zrotation
										JOINT rightLittleDistal
										{
											OFFSET -2.099998 0.000000 0.000000
											CHANNELS 3 Xrotation Yrotation Zrotation
											JOINT rightHandPinky4
											{
												OFFSET -2.115791 0.000000 0.000000
												CHANNELS 3 Xrotation Yrotation Zrotation
												End Site
												{
													OFFSET -2.115799 0.000000 0.000174
												}
											}
										}
									}
								}
							}
						}
					}
				}
				JOINT leftShoulder
				{
					OFFSET 4.570400 11.014679 -2.160816
					CHANNELS 6 Xposition Yposition Zposition Xrotation Yrotation Zrotation
					JOINT leftUpperArm
					{
						OFFSET 10.592373 -0.524597 -2.232116
						CHANNELS 3 Xrotation Yrotation Zrotation
						JOINT leftLowerArm
						{
							OFFSET 27.841488 0.000000 0.000001
							CHANNELS 3 Xrotation Yrotation Zrotation
							JOINT leftHand
							{
								OFFSET 28.328808 0.000000 -0.000000
								CHANNELS 3 Xrotation Yrotation Zrotation
								JOINT leftThumbProximal
								{
									OFFSET 2.466103 -1.576202 2.681698
									CHANNELS 6 Xposition Yposition Zposition Xrotation Yrotation Zrotation
									JOINT leftThumbIntermediate
									{
										OFFSET 3.243317 -1.872528 1.872530
										CHANNELS 3 Xrotation Yrotation Zrotation
										JOINT leftThumbDistal
										{
											OFFSET 2.647881 -1.528763 1.528754
											CHANNELS 6 Xposition Yposition Zposition Xrotation Yrotation Zrotation
											JOINT leftHandThumb4
											{
												OFFSET 1.998924 -1.154083 1.154080
												CHANNELS 6 Xposition Yposition Zposition Xrotation Yrotation Zrotation
												End Site
												{
													OFFSET 1.884041 -1.149155 1.337651
												}
											}
										}
									}
								}
								JOINT leftIndexProximal
								{
									OFFSET 9.109299 -0.518005 2.259900
									CHANNELS 6 Xposition Yposition Zposition Xrotation Yrotation Zrotation
									JOINT leftIndexIntermediate
									{
										OFFSET 3.699997 0.000000 0.000000
										CHANNELS 3 Xrotation Yrotation Zrotation
										JOINT leftIndexDistal
										{
											OFFSET 2.850006 0.000000 0.000000
											CHANNELS 3 Xrotation Yrotation Zrotation
											JOINT leftHandIndex4
											{
												OFFSET 2.774895 0.000000 0.000000
												CHANNELS 3 Xrotation Yrotation Zrotation
												End Site
												{
													OFFSET 2.774902 0.000000 -0.000072
												}
											}
										}
									}
								}
								JOINT leftMiddleProximal
								{
									OFFSET 9.533401 0.000000 0.000000
									CHANNELS 6 Xposition Yposition Zposition Xrotation Yrotation Zrotation
									JOINT leftMiddleIntermediate
									{
										OFFSET 3.699997 0.000000 0.000000
										CHANNELS 3 Xrotation Yrotation Zrotation
										JOINT leftMiddleDistal
										{
											OFFSET 2.949997 0.000000 0.000000
											CHANNELS 3 Xrotation Yrotation Zrotation
											JOINT leftHandMiddle4
											{
												OFFSET 2.952896 0.000000 0.000000
												CHANNELS 3 Xrotation Yrotation Zrotation
												End Site
												{
													OFFSET 2.952904 0.000000 0.000165
												}
											}
										}
									}
								}
								JOINT leftRingProximal
								{
									OFFSET 9.104500 -0.042999 -1.865101
									CHANNELS 6 Xposition Yposition Zposition Xrotation Yrotation Zrotation
									JOINT leftRingIntermediate
									{
										OFFSET 3.149994 0.000000 0.000000
										CHANNELS 3 Xrotation Yrotation Zrotation
										JOINT leftRingDistal
										{
											OFFSET 2.950005 0.000000 0.000000
											CHANNELS 3 Xrotation Yrotation Zrotation
											JOINT leftHandRing4
											{
												OFFSET 2.644302 0.000000 0.000000
												CHANNELS 3 Xrotation Yrotation Zrotation
												End Site
												{
													OFFSET 2.644302 0.000000 0.000083
												}
											}
										}
									}
								}
								JOINT leftLittleProximal
								{
									OFFSET 8.077805 -0.486893 -3.806302
									CHANNELS 6 Xposition Yposition Zposition Xrotation Yrotation Zrotation
									JOINT leftLittleIntermediate
									{
										OFFSET 3.600006 0.000000 0.000000
										CHANNELS 3 Xrotation Yrotation Zrotation
										JOINT leftLittleDistal
										{
											OFFSET 2.099998 0.000000 0.000000
											CHANNELS 3 Xrotation Yrotation Zrotation
											JOINT leftHandPinky4
											{
												OFFSET 2.125496 0.000000 0.000000
												CHANNELS 3 Xrotation Yrotation Zrotation
												End Site
												{
													OFFSET 2.125504 0.000000 -0.001254
												}
											}
										}
									}
								}
							}
						}
					}
				}
			}
		}
	}
	JOINT rightUpperLeg
	{
		OFFSET -8.207800 -6.751701 -1.599544
		CHANNELS 6 Xposition Yposition Zposition Xrotation Yrotation Zrotation
		JOINT rightLowerLeg
		{
			OFFSET 0.000004 -44.370152 0.345934
			CHANNELS 3 Xrotation Yrotation Zrotation
			JOINT rightFoot
			{
				OFFSET 0.000004 -44.423664 -3.043535
				CHANNELS 3 Xrotation Yrotation Zrotation
				JOINT rightToes
				{
					OFFSET 0.000001 -8.728691 10.710592
					CHANNELS 3 Xrotation Yrotation Zrotation
					JOINT rightToesEnd
					{
						OFFSET 0.000000 -0.000665 9.278101
						CHANNELS 3 Xrotation Yrotation Zrotation
						End Site
						{
							OFFSET 0.000000 -0.000665 9.278103
						}
					}
				}
			}
		}
	}
	JOINT leftUpperLeg
	{
		OFFSET 8.207800 -6.751701 -1.599544
		CHANNELS 6 Xposition Yposition Zposition Xrotation Yrotation Zrotation
		JOINT leftLowerLeg
		{
			OFFSET 0.000004 -44.370037 0.346940
			CHANNELS 3 Xrotation Yrotation Zrotation
			JOINT leftFoot
			{
				OFFSET 0.000004 -44.423611 -3.044388
				CHANNELS 3 Xrotation Yrotation Zrotation
				JOINT leftToes
				{
					OFFSET 0.000001 -8.728690 10.710592
					CHANNELS 3 Xrotation Yrotation Zrotation
					JOINT leftToesEnd
					{
						OFFSET 0.000000 -0.000680 9.278101
						CHANNELS 3 Xrotation Yrotation Zrotation
						End Site
						{
							OFFSET 0.000000 -0.000680 9.278101
						}
					}
				}
			}
		}
	}
}
MOTION
Frames: 4
Frame Time: 0.033333
-7.267194 102.212860 -2.814571 15.719749 21.538312 0.713759 -0.000001 10.181572 0.131524 0.345768 -0.230716 -7.032925 0.471488 0.610852 -3.770380 0.486006 0.613878 -3.768758 -0.000001 16.740358 -2.049019 -3.182798 -3.142626 0.212042 -0.000002 9.617846 1.684973 -13.904802 -16.881605 4.785881 -0.000000 22.037354 7.501075 -0.000001 -0.000000 -0.000000 -4.570001 11.014886 -2.160840 -0.370178 -1.157092 -17.558658 -12.582437 -7.394294 -10.947331 0.000140 122.179394 -0.000084 -42.985929 6.499659 0.767496 -2.464798 -1.573977 2.681911 -1.849652 -3.590217 -6.591390 4.637187 -8.634140 -0.225373 -2.646282 -1.527809 1.527818 -1.273746 0.137314 -2.094883 -1.994589 -1.151583 1.151570 0.000004 -0.000002 -0.000004 -9.108289 -0.517848 2.259808 -0.000009 0.000457 -0.003860 -0.000003 -0.000002 0.000003 -0.000001 -0.000003 0.000003 -0.000002 0.000000 0.000001 -9.532496 0.000016 -0.000003 -0.000009 0.000458 -0.003860 -0.000003 0.000001 0.000004 0.000000 -0.000003 0.000003 -0.000001 0.000003 0.000002 -9.103590 -0.043102 -1.865098 -0.000009 0.000457 -0.003860 -0.000003 -0.000002 0.000003 -0.000001 -0.000001 0.000000 -0.000000 0.000007 0.000002 -8.076694 -0.486727 -3.806299 -0.000012 0.000461 -0.003861 -0.000003 0.000001 0.000000 -0.000001 0.000000 0.000002 -0.000002 -0.000003 -0.000000 4.570395 11.014703 -2.160817 -0.128128 0.318927 16.131322 -29.349087 -8.143118 -42.828230 0.000007 -138.484162 0.000009 -2.601573 1.697033 -0.027613 2.466109 -1.576184 2.681696 -1.539950 3.690279 6.142358 3.939035 7.948719 0.746804 2.647868 -1.528749 1.528747 -0.579463 1.575004 2.538726 1.998932 -1.154059 1.154081 0.000001 -0.000002 -0.000000 9.109294 -0.518035 2.259896 -0.000002 0.000002 -0.000001 -0.000002 0.000002 -0.000001 -0.000002 0.000002 -0.000001 -0.000002 0.000002 -0.000003 9.533409 -0.000001 0.000001 -0.000004 -0.001931 0.015977 0.000003 0.001939 -0.015977 -0.000001 -0.000003 0.000002 0.000002 0.000005 -0.000002 9.104503 -0.043000 -1.865100 -0.000002 0.000002 -0.000001 -0.000003 0.000010 -0.000006 -0.000002 0.000003 -0.000005 -0.000003 0.000002 -0.000004 8.077809 -0.486890 -3.806303 -0.018086 4.054262 0.511076 -0.018099 -4.054262 -0.511075 -0.000002 -0.000000 0.000000 -0.000002 -0.000003 -0.000001 -8.207804 -6.751704 -1.599542 -19.309244 -9.147586 -7.000691 22.245236 0.901836 -0.334235 -12.447466 -0.060500 -0.008082 -11.376909 -0.000005 0.000001 0.000000 -0.000001 0.000000 8.207799 -6.751680 -1.599550 -69.092452 6.454644 0.697783 106.998779 8.873541 0.778226 14.257197 2.796501 6.046857 1.023183 -0.000002 0.000010 -0.000002 0.000002 -0.000001 
-7.204321 103.862183 -2.104057 16.475192 21.790426 1.221498 0.000004 10.181554 0.131522 0.357095 -0.556455 -9.518169 0.335516 1.194428 -4.114223 0.370567 1.211672 -4.108567 0.000003 16.740370 -2.049017 -4.163576 -3.419869 0.930126 0.000004 9.617837 1.684970 -12.047048 -17.408901 6.250202 0.000000 22.037384 7.501073 -0.000001 -0.000000 -0.000000 -4.569998 11.014894 -2.160838 -0.002968 -0.187313 -15.693843 7.384539 -0.179018 -5.002573 0.000207 117.717655 -0.000145 -24.467947 3.705631 0.284114 -2.464791 -1.573988 2.681900 -1.849590 -3.589690 -6.590451 4.637183 -8.634141 -0.225361 -2.646266 -1.527808 1.527812 -1.273747 0.137304 -2.094880 -1.994590 -1.151585 1.151577 -0.000001 -0.000005 -0.000000 -9.108296 -0.517883 2.259794 -0.000000 0.000369 -0.003032 0.000000 0.000000 0.000003 0.000002 -0.000001 0.000003 0.000002 -0.000001 0.000002 -9.532500 -0.000005 -0.000010 -0.000002 0.000368 -0.003032 0.000001 -0.000003 0.000002 0.000001 -0.000003 0.000003 0.000000 -0.000002 0.000004 -9.103590 -0.043106 -1.865109 -0.000001 0.000369 -0.003032 -0.000001 -0.000000 0.000004 0.000002 -0.000002 0.000001 0.000000 -0.000005 0.000004 -8.076693 -0.486737 -3.806308 -0.000005 0.000365 -0.003029 0.000001 -0.000000 0.000003 0.000002 -0.000001 0.000004 -0.000001 -0.000003 -0.000000 4.570403 11.014678 -2.160811 0.485163 -1.285288 14.447701 -13.201563 -9.599862 -47.109000 0.000006 -136.179888 0.000004 1.055784 1.645469 1.779045 2.466100 -1.576184 2.681702 -1.539949 3.690281 6.142359 3.939033 7.948720 0.746803 2.647892 -1.528753 1.528751 -0.579463 1.575001 2.538723 1.998921 -1.154091 1.154095 -0.000001 0.000000 0.000001 9.109290 -0.518017 2.259898 -0.000004 0.000002 0.000000 -0.000004 0.000002 0.000000 -0.000004 0.000002 0.000000 -0.000001 0.000002 0.000001 9.533406 -0.000001 0.000006 -0.000009 -0.001932 0.015975 0.000003 0.001939 -0.015977 -0.000003 -0.000001 -0.000000 -0.000001 0.000002 -0.000002 9.104506 -0.042997 -1.865095 -0.000004 0.000002 0.000000 -0.000001 0.000010 -0.000005 -0.000003 0.000003 -0.000002 -0.000003 0.000005 -0.000000 8.077812 -0.486892 -3.806297 -0.018089 4.054260 0.511075 -0.018097 -4.054261 -0.511074 -0.000001 0.000001 -0.000002 -0.000001 0.000001 -0.000001 -8.207800 -6.751699 -1.599544 -16.875249 -10.307024 -8.448375 17.289847 -1.913553 1.001777 -4.506514 -0.049418 0.865740 -15.012812 -0.000003 0.000001 -0.000000 0.000000 0.000000 8.207802 -6.751694 -1.599554 -63.175261 6.286184 -0.924989 88.431231 9.166185 -0.048462 13.355058 3.031175 6.605484 1.023159 0.000004 -0.000006 -0.000002 -0.000001 0.000001 
-6.785084 105.197754 -1.309418 17.620537 22.345198 0.610917 0.000002 10.181550 0.131518 0.378688 -0.931572 -10.023924 0.194200 1.107673 -4.009518 0.226207 1.140413 -4.001704 0.000003 16.740362 -2.049023 -6.084619 -3.628689 1.508348 -0.000003 9.617847 1.684977 -8.903506 -17.114806 7.264441 -0.000000 22.037384 7.501070 -0.000000 -0.000000 0.000000 -4.569995 11.014871 -2.160838 0.333559 0.653184 -13.147126 18.881448 14.101388 1.699552 0.000258 105.487552 -0.000203 -3.327754 0.281770 3.082096 -2.464809 -1.574006 2.681911 -1.849604 -3.589793 -6.590630 4.637185 -8.634138 -0.225362 -2.646265 -1.527807 1.527815 -1.273747 0.137309 -2.094884 -1.994606 -1.151582 1.151584 -0.000003 -0.000003 0.000003 -9.108300 -0.517881 2.259800 -0.000004 0.000394 -0.003192 0.000000 -0.000002 -0.000001 0.000001 -0.000003 -0.000001 0.000003 -0.000003 0.000002 -9.532504 -0.000007 -0.000002 -0.000004 0.000394 -0.003192 -0.000001 -0.000002 0.000000 0.000001 -0.000003 -0.000001 -0.000001 -0.000004 0.000003 -9.103595 -0.043104 -1.865100 -0.000004 0.000394 -0.003192 0.000002 -0.000000 0.000000 -0.000001 -0.000003 0.000001 -0.000001 -0.000002 0.000001 -8.076694 -0.486729 -3.806297 -0.000004 0.000391 -0.003198 0.000000 -0.000000 0.000002 0.000004 0.000002 0.000001 0.000001 0.000000 -0.000001 4.570399 11.014700 -2.160817 0.924551 -1.917135 9.606618 -4.858934 -9.855145 -54.077258 0.000007 -123.779270 0.000014 10.843308 -2.144483 -4.398007 2.466106 -1.576198 2.681703 -1.539948 3.690279 6.142358 3.939031 7.948722 0.746809 2.647887 -1.528746 1.528739 -0.579457 1.575003 2.538721 1.998909 -1.154095 1.154082 -0.000003 0.000000 0.000003 9.109307 -0.517991 2.259921 0.000001 0.000001 -0.000000 0.000001 0.000001 -0.000000 0.000001 0.000001 -0.000000 -0.000001 0.000002 -0.000002 9.533407 0.000010 0.000004 -0.000005 -0.001933 0.015975 0.000006 0.001937 -0.015979 0.000001 -0.000003 0.000002 0.000004 0.000001 -0.000000 9.104516 -0.042999 -1.865092 0.000001 0.000001 -0.000000 -0.000000 0.000009 -0.000004 -0.000001 0.000001 0.000001 -0.000002 0.000001 0.000001 8.077812 -0.486890 -3.806295 -0.018083 4.054262 0.511075 -0.018104 -4.054262 -0.511075 0.000002 -0.000000 -0.000001 -0.000001 -0.000001 0.000000 -8.207803 -6.751713 -1.599543 -14.636221 -10.320763 -9.482394 13.793217 -8.401189 0.747604 5.530214 0.011923 6.632539 -20.667794 0.201366 -1.789264 -0.000000 0.000000 0.000000 8.207800 -6.751708 -1.599557 -56.904464 4.937845 -2.537973 65.926502 9.489294 0.468092 14.773020 3.728191 2.176319 1.023172 0.000024 -0.000005 -0.000001 -0.000001 0.000003 
-6.020772 105.222107 -0.553577 18.817839 23.058013 -1.604031 -0.000001 10.181544 0.131521 0.258052 -0.682542 -8.180491 -0.145693 0.962051 -3.649673 -0.124528 1.002886 -3.642057 0.000002 16.740356 -2.049016 -7.877584 -3.973118 2.242821 0.000000 9.617863 1.684979 -6.864065 -17.066882 7.527815 0.000000 22.037354 7.501075 -0.000000 0.000000 0.000000 -4.570001 11.014845 -2.160832 0.409719 0.421707 -10.196772 14.670729 27.792210 14.984962 -0.001079 86.559185 0.001118 19.196236 0.283878 8.259794 -2.464771 -1.573998 2.681912 -1.849633 -3.589999 -6.590969 4.637182 -8.634143 -0.225370 -2.646287 -1.527807 1.527832 -1.273751 0.137306 -2.094878 -1.994599 -1.151556 1.151577 0.000006 -0.000007 0.000003 -9.108282 -0.517885 2.259796 0.000000 0.000417 -0.003487 -0.000000 0.000000 -0.000001 0.000001 -0.000002 -0.000002 -0.000000 -0.000002 -0.000003 -9.532476 -0.000005 -0.000005 -0.000003 0.000416 -0.003487 0.000001 -0.000001 -0.000001 0.000002 -0.000002 -0.000002 0.000003 -0.000001 -0.000002 -9.103576 -0.043123 -1.865105 -0.000000 0.000419 -0.003487 0.000001 0.000002 0.000001 0.000001 -0.000000 0.000000 -0.000002 -0.000001 0.000000 -8.076678 -0.486742 -3.806299 -0.000005 0.000414 -0.003489 0.000001 -0.000000 -0.000001 0.000004 0.000001 -0.000001 -0.000002 -0.000004 -0.000003 4.570402 11.014685 -2.160810 0.813628 -0.641064 3.991321 -7.407639 -9.632945 -61.566021 -0.000038 -103.029128 -0.000032 23.529423 -8.243023 -15.262565 2.466106 -1.576188 2.681701 -1.539952 3.690278 6.142355 3.939033 7.948722 0.746806 2.647883 -1.528733 1.528760 -0.579462 1.575003 2.538726 1.998917 -1.154058 1.154070 0.000003 0.000003 0.000003 9.109300 -0.517990 2.259898 0.000001 -0.000000 -0.000000 0.000001 -0.000000 -0.000000 0.000001 -0.000000 -0.000000 -0.000003 -0.000000 -0.000000 9.533403 0.000011 0.000001 -0.000005 -0.001934 0.015976 0.000004 0.001937 -0.015977 -0.000003 -0.000003 0.000002 -0.000004 0.000000 -0.000000 9.104501 -0.042999 -1.865102 0.000001 -0.000000 -0.000000 -0.000000 0.000009 -0.000003 -0.000002 -0.000000 0.000000 -0.000003 -0.000000 0.000000 8.077807 -0.486875 -3.806301 -0.018086 4.054262 0.511077 -0.018096 -4.054261 -0.511075 0.000000 -0.000001 0.000000 0.000001 -0.000000 0.000000 -8.207802 -6.751706 -1.599546 -11.617702 -10.156022 -8.079930 12.297187 -9.612374 -0.262568 7.596346 -3.779996 2.128116 -18.774621 -0.360315 5.978281 0.000000 0.000000 0.000000 8.207799 -6.751693 -1.599557 -51.431953 3.129870 -2.421393 43.905829 9.688107 1.542007 19.326179 4.550123 -3.398896 1.023166 0.000003 -0.000004 0.000000 -0.000001 0.000001 
